<?xml version="1.0" encoding="utf-8"?>
<!-- Generator: Adobe Illustrator 26.5.0, SVG Export Plug-In . SVG Version: 6.00 Build 0)  -->
<svg version="1.1" id="Layer_1" xmlns="http://www.w3.org/2000/svg" xmlns:xlink="http://www.w3.org/1999/xlink" x="0px" y="0px"
	 viewBox="0 0 932.2 332" style="enable-background:new 0 0 932.2 332;" xml:space="preserve">
<style type="text/css">
	.st0{fill:#FFFFFF;}
	.st1{fill:#F37423;}
</style>
<g>
	<path class="st0" d="M379.5,62.2v42.7h170.7V233h-128v-85.4h-42.7v128.1h213.4V62.2H379.5z M899.3,62.3L827,129l-72.9-66.7H721
		v213.3h42.4V124.5l63.6,58.4l62.8-58.2v150.9h42.4V62.3H899.3z M635.5,62.4h42.8v213.3h-42.8V62.4z"/>
</g>
<path class="st1" d="M128.8,165.9l32.2-32.2l32.2,32.2L161,198.1L128.8,165.9z"/>
<path class="st1" d="M161,5l-32.2,32.2L257.7,166L161,262.6L64.4,166l64.4-64.4L96.6,69.4L0,166l161,161l161.1-161L161,5z"/>
</svg>
